<svg xmlns="http://www.w3.org/2000/svg" width="24" height="24" viewBox="0 0 24 24" fill="none" stroke="rgb(234 88 12)" stroke-width="2" stroke-linecap="round" stroke-linejoin="round" class="lucide lucide-square-pen w-4 h-4" data-lov-id="src/components/CampaignUrlRow.tsx:70:12" data-lov-name="Edit" data-component-path="src/components/CampaignUrlRow.tsx" data-component-line="70" data-component-file="CampaignUrlRow.tsx" data-component-name="Edit" data-component-content="%7B%22className%22%3A%22w-4%20h-4%22%7D"><path d="M12 3H5a2 2 0 0 0-2 2v14a2 2 0 0 0 2 2h14a2 2 0 0 0 2-2v-7"></path><path d="M18.375 2.625a1 1 0 0 1 3 3l-9.013 9.014a2 2 0 0 1-.853.505l-2.873.84a.5.5 0 0 1-.62-.62l.84-2.873a2 2 0 0 1 .506-.852z"></path></svg>